<svg width="20" height="20" viewBox="0 0 20 20" fill="none" xmlns="http://www.w3.org/2000/svg">
<path d="M17.5 9.99993C17.96 9.99993 18.3375 9.62577 18.2916 9.16827C18.0995 7.25507 17.2517 5.46718 15.8919 4.1077C14.5321 2.74822 12.744 1.9008 10.8308 1.7091C10.3725 1.66327 9.99915 2.04077 9.99915 2.50077V9.16743C9.99915 9.38845 10.0869 9.60041 10.2432 9.75669C10.3995 9.91297 10.6115 10.0008 10.8325 10.0008L17.5 9.99993Z" stroke="#C27AFF" stroke-width="1.66667" stroke-linecap="round" stroke-linejoin="round"/>
<path d="M17.6751 13.2417C17.1449 14.4955 16.3157 15.6002 15.2599 16.4595C14.2042 17.3187 12.954 17.9063 11.6187 18.1707C10.2835 18.4352 8.90374 18.3685 7.60017 17.9766C6.29661 17.5846 5.10891 16.8793 4.1409 15.9223C3.1729 14.9653 2.45406 13.7857 2.04725 12.4867C1.64043 11.1877 1.55802 9.8088 1.80722 8.47059C2.05641 7.13238 2.62963 5.87559 3.47676 4.81009C4.32388 3.74459 5.41912 2.90283 6.66672 2.3584" stroke="#C27AFF" stroke-width="1.66667" stroke-linecap="round" stroke-linejoin="round"/>
</svg>
