<svg width="24" height="24" viewBox="0 0 24 24" fill="none" xmlns="http://www.w3.org/2000/svg">
<path d="M20.296 17.2959L17.296 20.2959C17.0846 20.5072 16.798 20.626 16.4991 20.626C16.2002 20.626 15.9136 20.5072 15.7022 20.2959C15.4909 20.0846 15.3721 19.7979 15.3721 19.499C15.3721 19.2001 15.4909 18.9135 15.7022 18.7021L16.7813 17.625H4.50004C4.20167 17.625 3.91552 17.5064 3.70454 17.2955C3.49356 17.0845 3.37504 16.7983 3.37504 16.5C3.37504 16.2016 3.49356 15.9154 3.70454 15.7045C3.91552 15.4935 4.20167 15.375 4.50004 15.375H16.7813L15.7013 14.2959C15.4899 14.0846 15.3712 13.7979 15.3712 13.499C15.3712 13.2001 15.4899 12.9135 15.7013 12.7021C15.9126 12.4908 16.1993 12.3721 16.4982 12.3721C16.797 12.3721 17.0837 12.4908 17.295 12.7021L20.295 15.7021C20.4 15.8066 20.4833 15.9307 20.5401 16.0675C20.597 16.2042 20.6263 16.3508 20.6264 16.4988C20.6265 16.6469 20.5973 16.7935 20.5406 16.9303C20.4839 17.0671 20.4008 17.1913 20.296 17.2959ZM6.70222 11.2959C6.91357 11.5072 7.20021 11.626 7.4991 11.626C7.79799 11.626 8.08463 11.5072 8.29597 11.2959C8.50732 11.0846 8.62605 10.7979 8.62605 10.499C8.62605 10.2001 8.50732 9.91349 8.29597 9.70215L7.21879 8.62496H19.5C19.7984 8.62496 20.0846 8.50643 20.2955 8.29545C20.5065 8.08448 20.625 7.79833 20.625 7.49996C20.625 7.20159 20.5065 6.91544 20.2955 6.70446C20.0846 6.49349 19.7984 6.37496 19.5 6.37496H7.21879L8.29597 5.2959C8.50732 5.08455 8.62605 4.79791 8.62605 4.49902C8.62605 4.20014 8.50732 3.91349 8.29597 3.70215C8.08463 3.4908 7.79799 3.37207 7.4991 3.37207C7.20021 3.37207 6.91357 3.4908 6.70222 3.70215L3.70223 6.70215C3.59735 6.80666 3.51413 6.93086 3.45735 7.0676C3.40057 7.20435 3.37134 7.35096 3.37134 7.49902C3.37134 7.64709 3.40057 7.7937 3.45735 7.93044C3.51413 8.06719 3.59735 8.19138 3.70223 8.2959L6.70222 11.2959Z" fill="#F8FAFC"/>
</svg>
